# xmcd
#
# Track frame offsets: 
#        150
#        14282
#        30589
#        48047
#        64722
#        77212
#        92659
#        109706
#        122858
#        135731
#
# Disc length: 1984 seconds
#
# Revision: 0
# Processed by: cddbd v1.5.1PL2 Copyright (c) Steve Scherf et al.
# Submitted via: ExactAudioCopy v0.95a5
#
DISCID=7907be0a
DTITLE=Coy Moore - Self-titled
DYEAR=2005
DGENRE=Alternative
TTITLE0=Die in the Desert
TTITLE1=I Can't Hel if I'm Country
TTITLE2=No Secrets Tonight
TTITLE3=Take Me Back to Jumpin' Jack
TTITLE4=Poet of the Prairie
TTITLE5=Back in the Brazos
TTITLE6=River Runs Down
TTITLE7=How I Miss San Antone
TTITLE8=Baby' Don't Want no Haggard Tonight
TTITLE9=I've Crossed the Brazos at Waco
EXTD=
EXTT0=
EXTT1=
EXTT2=
EXTT3=
EXTT4=
EXTT5=
EXTT6=
EXTT7=
EXTT8=
EXTT9=
PLAYORDER=
